<svg width="421" height="396" viewBox="0 0 421 396" fill="none" xmlns="http://www.w3.org/2000/svg">
<mask id="path-1-inside-1_33_289" fill="white">
<path d="M139.576 281.478C139.709 281.591 139.734 281.801 139.626 281.939C138.845 282.946 138.083 283.933 137.297 284.943C122.72 303.831 111.773 324.426 104.825 346.836C101.506 357.56 100.372 368.605 101.081 379.73C101.592 387.92 102.839 396.056 106.413 403.686C107.037 405.047 107.746 406.407 108.426 407.741C113.418 417.319 121.444 423.134 132.675 424.922C133.894 425.109 135.114 425.375 136.333 425.589C143.735 426.949 149.578 430.471 153.378 436.687C155.93 440.848 158.398 445.037 160.865 449.225C163.673 454.027 166.849 458.536 171.302 462.164C175.159 465.312 179.47 467.873 184.574 468.113C188.573 468.3 192.714 467.713 196.628 466.859C200.683 465.979 204.625 464.538 208.511 463.071C212.963 461.364 217.501 460.243 222.351 460.19C223.91 460.163 225.527 459.896 227.002 459.39C237.297 455.788 246.4 450.693 252.583 441.756C258.624 433.005 262.878 423.535 266.111 413.584C266.424 412.594 267.861 412.708 268.045 413.73C268.264 414.939 268.473 416.052 268.72 417.159C270.081 423.188 272.577 428.817 276.548 433.672C281.142 439.248 283.638 445.464 284.772 452.32C285.226 455.148 286.077 457.922 286.786 460.723C289.196 470.114 294.358 478.224 300.569 485.694C307.801 494.391 317.869 498.953 329.156 501.14C338.373 502.901 347.392 501.861 356.212 498.899C367.415 495.138 376.972 488.949 385.594 481.399C389.479 477.984 393.223 474.382 396.824 470.701C400.767 466.673 405.106 463.124 410.069 460.243C410.749 459.843 411.373 459.39 412.082 459.043C426.688 451.573 434.714 439.595 439.082 424.895C442.57 413.21 443.08 401.392 441.918 389.414C441.721 387.295 444.19 386.696 445.129 388.605C445.174 388.696 445.219 388.788 445.264 388.88C452.354 403.366 463.415 414.304 478.588 421.4C488.486 426.042 498.894 427.243 509.557 423.775C515.343 421.907 520.363 418.813 524.645 414.758C537.039 402.993 545.377 389.28 547.39 372.527C548.184 365.964 548.78 359.321 550.567 352.972C552.892 344.648 556.182 336.565 559.245 328.428C561.939 321.278 564.095 314.022 564.804 306.446C565.456 299.669 564.435 293.053 562.45 286.544C557.997 271.978 551.162 258.505 541.803 246.127C531.31 232.308 517.328 222.597 501.305 215.181C488.117 209.071 474.305 204.776 459.841 202.349C458.896 202.187 459.142 201.012 460.066 200.754C460.499 200.634 460.934 200.521 461.373 200.428C480.63 196.533 497.022 187.649 511.316 175.084C511.826 174.657 512.337 174.23 512.762 173.723C518.69 166.387 526.857 161.452 534.288 155.689C537.266 153.368 540.272 151.101 543.136 148.7C553.091 140.323 560.408 130.265 563.216 117.86C565.513 107.802 563.811 98.2251 557.628 89.4214C550.028 78.6169 539.733 71.5739 526.347 68.3726C519.001 66.6118 511.741 64.5043 504.566 62.2367C494.697 59.0887 487.124 53.3263 482.7 44.2292C482.218 43.2687 481.651 42.335 481.169 41.3746C476.064 31.0236 466.705 26.5417 455.332 25.0211C442.513 23.3137 430.29 26.0882 418.378 30.0365C394.102 38.1199 373.569 51.3521 357.29 70.2133C353.773 74.295 350.71 78.6435 348.64 83.5522C348.336 84.2188 347.319 84.0755 347.014 83.4094C346.82 82.9855 346.65 82.5917 346.513 82.1917C338.458 60.1291 326.178 40.3609 310.041 22.7001C306.581 18.9119 302.611 15.5238 298.612 12.2158C293.025 7.60049 286.389 4.53256 279.469 2.05151C271.301 -0.883026 262.963 -0.37619 254.738 1.73135C240.983 5.22614 227.257 8.93436 213.53 12.5625C207.206 14.2432 200.768 15.7639 194.189 15.7906C188.46 15.8173 182.674 15.177 176.974 14.4033C169.231 13.3362 161.574 11.6822 153.718 12.2691C150.712 12.4825 147.649 13.0428 144.756 13.8698C139.992 15.257 136.872 18.4584 135.653 23.0203C134.972 25.5814 134.546 28.2491 134.376 30.8902C134.149 33.9582 134.405 37.0795 134.291 40.1741C133.923 49.538 133.44 58.9286 133.1 68.2925C132.731 78.8303 131.597 89.3947 132.987 99.9325C134.603 112.364 137.439 124.529 143.537 135.761C145.834 140.003 149.067 143.791 151.875 147.766C152.567 148.711 151.839 149.993 150.691 149.759C148.7 149.354 146.87 148.981 145.04 148.619C131.37 146.005 117.899 147.366 104.825 151.261C79.0166 158.997 55.449 170.575 36.4191 189.17C20.5089 204.723 9.33484 222.997 2.04619 243.379C0.287844 248.261 -0.307727 253.33 0.146041 258.506C0.713251 265.175 4.11651 268.456 11.4052 268.776C15.9428 268.963 20.4805 269.017 25.0182 268.75C30.2933 268.43 33.6965 270.324 36.2773 274.726C45.1258 289.879 58.9657 298.362 77.0881 300.87C93.1685 303.111 108.228 300.283 122.125 292.413C127.456 289.398 132.448 285.85 137.609 282.542C138.152 282.178 138.717 281.836 139.264 281.475C139.363 281.41 139.486 281.401 139.576 281.478ZM271.286 321.225C272.38 321.596 273.209 322.607 273.144 323.759C272.492 330.642 271.641 337.525 271.216 344.435C270.79 351.344 270.649 358.281 270.592 365.217C270.507 376.768 269.174 388.16 267.075 399.524C264.664 412.437 260.212 424.628 253.519 436.153C247.79 445.997 239.253 452.587 228.278 456.508C225.584 457.469 222.606 458.136 219.713 458.242C215.658 458.402 211.942 459.416 208.199 460.75C203.661 462.351 199.038 463.845 194.387 465.152C185.454 467.66 177.825 465.285 171.5 459.123C169.231 456.909 167.189 454.454 165.431 451.866C163.162 448.558 161.376 444.984 159.248 441.569C157.348 438.527 155.42 435.54 153.293 432.632C150.655 429.004 147.053 426.442 142.601 425.082C140.247 424.362 137.865 423.535 135.426 423.214C121.728 421.534 113.248 414.011 108.256 402.299C105.704 396.296 104.257 390.081 103.662 383.705C102.442 370.872 103.435 358.147 107.462 345.769C114.042 325.547 123.741 306.686 136.617 289.372C141.154 283.263 146.259 277.5 151.534 271.951C156.214 267.069 161.404 262.587 166.537 258.132C174.875 250.902 183.213 243.673 191.806 236.736C198.102 231.668 205.022 227.372 212.68 224.251C213.195 224.041 213.716 223.849 214.264 223.659C215.769 223.134 217.317 224.561 216.877 226.092C212.992 239.671 211.829 253.357 215.374 267.149C218.068 277.633 223.286 286.651 233.581 292.333C234.192 292.678 234.337 293.5 234.38 294.2C234.679 299.09 237.028 303.069 241.863 305.405C251.904 310.254 260.421 317.542 271.286 321.225ZM375.887 259.058C375.908 258.859 376.061 258.704 376.259 258.672C376.434 258.643 376.617 258.704 376.722 258.846C377.422 259.789 378.085 260.767 378.844 261.653C384.686 268.536 389.11 276.166 392.4 284.436C397.023 296.015 401.759 307.513 406.609 319.011C410.551 328.348 416.195 336.778 423.994 343.581C429.496 348.383 432.786 354.092 434.572 360.708C438.94 376.875 441.464 393.255 439.961 410.009C439.053 420.146 434.062 427.51 423.994 431.538C421.612 432.498 419.144 433.299 416.705 434.152C411.629 435.94 406.439 437.54 401.447 439.515C391.748 443.329 384.998 449.946 381.283 459.203C379.638 463.285 378.135 467.42 376.603 471.528C373.711 479.265 369.457 486.254 363.558 492.31C362.452 493.457 361.033 494.498 359.559 495.138C351.164 498.659 342.457 500.714 333.155 499.46C320.818 497.779 310.126 493.164 302.157 483.88C296.06 476.757 292.458 468.38 289.14 459.896C288.601 458.509 288.374 457.015 288.005 455.548C284.177 440.342 286.048 442.529 277.115 430.097C269.911 420.093 268.805 408.675 270.053 396.937C271.046 387.519 272.322 378.102 272.889 368.658C273.513 358.334 273.456 347.983 273.768 337.632C273.882 334.324 274.165 331.043 274.562 327.761C274.641 327.157 274.772 326.558 274.928 325.963C275.433 324.041 277.36 322.823 279.343 322.963C289.337 323.671 298.547 322.221 306.62 317.417C307.516 316.884 308.572 316.666 309.591 316.885C311.922 317.388 313.993 317.902 316.082 318.077C323.654 318.717 330.149 315.916 335.736 311.488C344.641 304.391 353.631 297.322 361.969 289.665C369.4 282.836 374.249 274.405 375.356 264.428C375.542 262.598 375.704 260.816 375.887 259.058ZM358.961 154.275C356.354 154.736 354.063 152.601 354.389 149.973C354.821 146.497 355.229 143.163 355.305 139.816C355.446 133.333 355.049 126.824 354.794 120.314C354.397 110.577 352.242 101.106 349.689 91.7157C349.065 89.3947 349.15 87.3405 350.086 85.1796C352.185 80.4043 355.106 76.1092 358.538 72.1075C373.172 55.0604 391.493 42.6552 412.933 34.2783C424.93 29.583 437.323 26.4084 450.511 26.7018C454.708 26.7818 458.197 28.1424 460.976 31.157C464.464 34.8919 467.385 39.027 468.463 43.909C469.711 49.6181 470.59 55.4338 471.186 61.2496C471.866 67.9457 472.916 74.5351 475.099 80.9645C478.247 90.195 484.685 96.2242 494.47 99.1588C502.042 101.426 509.784 101.853 517.64 101.373C520.249 101.213 522.858 101.16 525.468 101.106C527.822 101.053 529.665 101.933 530.658 104.041C532.076 107.055 534.401 109.35 537.039 111.404C538.428 112.498 539.818 113.591 541.123 114.792C549.801 122.689 551.843 133.573 543.902 143.231C540.953 146.805 537.351 150.007 533.721 153.021C529.381 156.596 524.645 159.771 520.136 163.186C518.633 164.306 517.186 165.533 515.939 166.894C497.958 186.609 474.958 197.307 447.76 200.428C439.649 201.362 431.566 202.295 424.192 205.95C423.274 206.382 422.249 205.482 421.956 204.509C421.518 203.051 421.103 201.647 420.732 200.214C417.925 189.623 414.209 179.379 408.084 170.015C404.113 163.986 398.753 159.317 392.429 155.582C388.827 153.448 384.8 152.168 380.517 152.354C375.1 152.568 369.683 152.968 364.295 153.502C362.512 153.679 360.745 153.96 358.961 154.275ZM177.343 156.446C176.487 157.815 174.882 158.543 173.317 158.148C162.272 155.363 153.305 147.446 150.542 135.761C148.131 125.597 148.698 115.432 150.882 105.321C152.896 95.9308 155.051 86.5935 156.951 77.1763C157.887 72.5343 157.462 67.8657 156.157 63.2504C154.456 57.2212 150.712 52.3125 146.883 47.3771C144.019 43.6689 141.353 39.854 138.829 35.9324C136.588 32.4909 136.447 28.7293 137.553 24.8077C139.68 17.1511 144.246 16.4842 150.173 17.3646C151.591 17.578 153.038 18.0849 154.342 18.7252C157.15 20.1124 159.986 21.473 162.595 23.1537C169.146 27.3687 175.527 31.824 182.022 36.0924C189.254 40.8144 197.025 44.5226 205.675 46.23C210.751 47.2171 215.941 47.9641 221.103 48.3642C228.391 48.8978 235.595 48.0708 242.43 45.4297C246.457 43.8824 247.223 42.335 246.003 38.4401C245.266 36.0924 244.33 33.7981 243.564 31.4771C243.199 30.4075 244.364 29.4226 245.459 29.7C247.84 30.3027 250.068 30.8928 252.328 31.237C256.752 31.904 260.807 30.3834 264.835 28.9427C272.208 26.3016 279.781 25.7148 287.551 26.9686C303.802 29.583 316.139 38.28 326.887 49.4047C328.107 50.6585 329.128 52.0991 330.035 53.5664C338.147 66.5052 343.989 80.351 348.016 94.837C351.192 106.309 353.064 118.02 352.922 129.892C352.837 136.801 352.412 143.711 351.986 150.62C351.919 151.726 351.623 152.814 351.305 153.888C350.902 155.247 349.848 156.34 348.501 156.782C339.242 159.824 330.759 163.898 322.898 169.084C321.402 170.071 319.446 169.985 317.971 168.968C311.407 164.444 304.181 162.703 296.414 163.36C294.367 163.533 292.403 162.32 291.842 160.344C291.19 158.046 290.58 155.873 290.047 153.688C288.175 146.272 284.942 139.576 279.1 134.16C274.562 129.972 269.23 127.544 262.764 127.277C258.595 127.09 254.398 126.717 250.484 125.036C242.912 121.782 234.886 120.821 226.633 120.848C211.177 120.901 198.67 126.637 189.481 138.242C185.624 143.097 182.532 148.486 179.129 153.635C178.511 154.579 177.919 155.523 177.343 156.446ZM424.036 211.866C423.58 210.221 424.307 208.474 425.835 207.712C429.141 206.063 432.497 205.1 435.962 204.376C442.967 202.936 449.972 201.922 457.119 203.629C460.834 204.51 464.606 205.257 468.35 206.084C483.097 209.312 496.37 215.047 506.92 225.612C513.414 232.094 519.285 238.897 522.944 247.247C528.36 259.519 529.041 272.245 527.538 285.237C526.262 296.228 524.872 307.219 523.426 318.21C522.547 324.933 522.887 331.656 524.163 338.272C525.609 345.902 527.538 353.452 529.438 361.002C532.388 372.713 533.919 384.452 531.82 396.457C530.487 404.06 526.404 410.302 520.391 415.184C509.557 423.961 497.05 425.775 483.834 420.947C462.252 413.05 450.284 396.803 442.627 377.222C440.074 370.659 438.571 363.75 436.387 357.027C434.742 351.958 431.935 347.529 427.709 343.875C419.144 336.458 412.763 327.574 408.509 317.41C403.631 305.832 398.895 294.2 394.215 282.542C390.042 272.186 383.795 263.104 376.659 255.298C376.197 254.793 375.864 254.181 375.709 253.514C374.359 247.731 373.565 242.286 371.555 237.27C369.774 232.777 369.806 228.387 369.861 223.477C369.869 222.856 370.779 222.584 371.016 223.157C376.518 237.537 385.877 249.702 396.144 261.253C402.667 268.59 410.778 274.352 420.023 278.407C423.171 279.794 426.603 280.701 430.006 281.342C435.054 282.302 440.698 279.874 441.974 276.059C443.08 272.805 444.357 269.523 444.101 265.922C443.931 263.468 442.853 261.2 442.683 258.852C442.4 255.251 441.379 251.943 439.932 248.715C436.217 240.365 432.388 232.068 428.531 223.771C426.742 219.902 425.181 215.997 424.036 211.866ZM219.767 217.967C219.228 219.247 218.086 220.184 216.721 220.445C215.716 220.638 214.751 220.818 213.786 220.943C205.278 222.01 196.713 222.784 188.261 224.171C176.832 226.065 165.913 229.533 155.817 235.082C146.997 239.911 140.445 246.661 136.248 255.358C134.49 259.039 133.242 262.934 131.625 266.669C129.64 271.204 127.91 275.873 125.386 280.115C119.6 289.745 111.036 296.175 99.2376 298.309C91.3818 299.723 83.5259 299.856 75.6417 298.362C62.6242 295.908 51.4502 290.652 43.3674 280.435C41.2121 277.714 39.2268 274.832 37.4117 271.898C35.1996 268.323 31.9098 266.616 27.6841 266.402C25.3018 266.295 22.9195 266.589 20.5372 266.562C17.0205 266.536 13.5038 266.616 10.0439 266.269C5.59126 265.842 3.60602 263.681 2.67013 259.573C1.67751 255.251 2.4716 251.089 3.5493 246.927C7.54813 231.321 15.9145 218.382 30.35 209.392C35.2563 206.35 40.4463 203.683 45.5512 200.935C48.7843 199.201 52.1876 197.68 55.449 195.973C67.7291 189.543 78.336 181.166 88.0352 171.616C94.2178 165.507 101.28 160.251 109.107 156.063C117.303 151.687 125.953 148.753 135.653 149.66C138.006 149.873 140.389 149.953 142.743 150.327C150.116 151.501 157.405 152.915 163.928 156.703C166.395 158.144 169.288 158.89 171.982 159.984C173.283 160.528 173.819 162.048 173.12 163.272C172.982 163.512 172.849 163.749 172.72 163.986C170.252 168.495 168.579 173.243 168.466 178.312C168.324 183.674 171.557 186.609 177.201 186.822C181.285 186.982 185.028 185.862 188.687 184.394C192.657 182.794 196.514 181.033 200.513 179.539C207.178 177.031 213.956 175.377 221.358 176.391C229.129 177.458 236.729 178.872 243.99 181.753C245.344 182.287 245.398 184.216 244.239 185.096C232.632 193.909 225.17 205.128 219.767 217.967ZM272.707 260.569C272.476 260.532 272.238 260.568 272.033 260.68C271.621 260.906 271.108 260.818 270.795 260.467C269.234 258.719 267.641 256.966 266.139 255.171C263.105 251.516 260.978 247.408 259.361 243.059C255.532 232.761 255.107 222.224 256.638 211.499C259.134 194.025 268.011 180.313 283.524 170.335C288.913 166.867 294.727 165.347 301.136 165.613C310.722 166.04 318.124 170.095 322.889 177.832C330.461 190.104 331.709 203.416 329.298 217.128C327.455 227.586 322.718 237.057 316.734 245.914C314.834 248.741 312.253 251.302 309.531 253.49C305.277 256.931 300.229 257.812 294.868 255.998C290.529 254.531 286.445 254.771 282.446 256.878C280.858 257.705 279.043 258.239 277.682 259.306C276.138 260.633 274.518 260.856 272.707 260.569ZM326.542 172.058C325.511 171.71 325.216 170.174 326.15 169.615C336.02 163.586 346.513 158.89 358.112 156.81C363.558 155.849 369.116 155.502 374.561 154.595C377.993 154.035 380.517 155.129 382.814 157.29C387.04 161.318 390.33 165.907 391.549 171.482C393.535 180.633 395.463 189.837 396.995 199.067C398.923 210.859 403.517 221.397 412.054 230.307C416.535 234.976 421.243 239.457 425.582 244.233C429.269 248.261 432.871 252.396 436.019 256.825C438.202 259.893 439.791 263.388 441.095 266.882C443.449 273.125 438.656 279.154 431.708 279.234C428.078 279.261 424.788 278.22 421.64 276.753C411.997 272.218 403.801 266.109 396.853 258.265C386.615 246.714 377.908 234.389 372.321 220.196C369.825 213.82 367.301 207.417 364.181 201.282C356.553 186.262 344.726 175.804 326.916 172.176C326.791 172.14 326.667 172.1 326.542 172.058ZM251.162 180.841C249.933 181.465 248.478 181.474 247.238 180.871C241.111 177.888 234.596 176.309 227.966 175.057C218.04 173.19 208.369 173.67 199.038 177.592C195.408 179.112 191.863 180.793 188.148 182.1C185.113 183.167 181.937 184.074 178.732 184.608C175.888 185.085 173.917 184.465 172.315 182.686C171.386 181.655 171.404 180.121 172.046 178.891C172.454 178.109 172.889 177.305 173.372 176.525C178.335 168.441 185.851 162.999 194.756 159.397C205.646 154.996 214.92 148.539 223.967 141.47C228.902 137.602 234.461 134.427 239.934 131.199C243.649 129.011 247.847 128.078 252.299 128.558C255.22 128.878 258.142 129.091 261.063 129.251C268.21 129.625 274.165 132.213 278.901 137.335C284.347 143.231 287.296 150.167 288.828 157.717C289.08 158.964 289.227 160.236 289.342 161.404C289.494 162.947 288.754 164.458 287.43 165.267C284.707 166.931 282.28 168.37 279.979 169.962C277.381 171.76 274.932 173.717 272.283 175.766C271.472 176.392 270.45 176.665 269.427 176.607C263.07 176.246 257.037 177.856 251.162 180.841ZM533.876 400.358C533.768 400.494 533.581 400.539 533.423 400.465C533.279 400.397 533.194 400.245 533.209 400.086C533.251 399.668 533.287 399.254 533.38 398.858C535.025 392.161 535.479 385.385 534.883 378.556C534.146 370.152 532.217 361.962 529.949 353.825C527.538 345.155 525.666 336.431 525.496 327.414C525.269 314.876 527.453 302.604 529.211 290.252C530.487 281.128 530.941 272.031 529.722 262.854C528.105 250.796 523.312 240.044 514.946 230.787C512.025 227.533 508.763 224.571 505.644 221.477C505.331 221.157 505.019 220.844 504.703 220.53C504.229 220.06 504.491 219.261 505.076 219.583C513.244 223.824 521.129 228.413 527.822 234.602C536.358 242.499 543.477 251.356 548.95 261.44C553.403 269.63 557.373 277.927 560.096 286.784C562.45 294.467 563.102 302.204 561.911 310.154C560.862 317.063 558.394 323.546 556.012 330.109C553.204 337.845 550.085 345.555 548.014 353.479C546.256 360.255 545.859 367.351 544.724 374.287C543.363 382.691 540.612 390.641 535.763 397.87C535.192 398.7 534.527 399.529 533.876 400.358ZM236.683 285.996C235.423 288.059 232.775 289.094 230.846 287.639C227.042 284.77 224.256 281.193 221.982 277.18C218.153 270.377 216.452 262.987 215.941 255.384C215.374 246.394 216.14 237.483 218.635 228.76C222.606 214.727 229.242 202.002 240.161 191.544C246.23 185.755 253.207 181.273 261.8 179.512C262.986 179.269 264.188 178.996 265.467 178.884C267.104 178.742 267.866 180.624 266.848 181.913C261.658 188.369 257.83 195.439 255.873 203.362C253.604 212.46 252.696 221.61 254.001 230.947C255.504 241.405 258.822 251.036 266.451 259.119C270.138 263.041 273.626 264.054 278.703 262C278.769 261.973 278.835 261.946 278.901 261.919C280.664 261.199 282.768 261.803 283.55 263.539C284.674 266.034 284.656 268.023 283.489 269.967C282.66 271.348 280.86 271.61 279.325 271.122C270.995 268.471 262.664 269.586 254.568 272.885C247.392 275.8 240.717 279.394 236.683 285.996ZM325.668 177.698C324.64 176.062 326.078 174.059 327.955 174.521C334.569 176.149 340.38 178.601 345.464 182.474C359.729 193.278 366.904 207.551 367.67 224.625C368.067 233.375 364.692 241.058 358.963 247.941C356.241 251.196 353.858 254.717 351.391 258.159C350.512 259.386 349.973 260.853 349.065 262.027C342.939 269.87 334.97 275.232 324.874 277.58C318.72 279.021 312.509 279.074 306.44 277.287C302.214 276.033 299.888 272.111 301.306 268.216C303.008 263.548 305.702 259.333 310.013 256.291C313.615 253.757 316.678 250.769 318.975 247.194C328.391 232.601 334.375 217.155 332.389 199.628C331.51 191.918 329.752 184.528 325.668 177.698ZM243.767 39.5498C244.102 41.2126 242.975 42.7357 241.386 43.3277C239.889 43.8851 238.437 44.4175 236.928 44.7893C228.562 46.8702 220.11 46.3633 211.63 45.1628C200.286 43.5355 190.275 39.027 181.001 32.811C175.102 28.8361 169.175 24.9144 163.162 21.0728C159.305 18.5918 155.165 16.6176 150.513 15.8439C149.927 15.7436 150.291 14.757 150.884 14.7048C157.566 14.1163 163.836 14.5303 170.082 15.4971C175.669 16.3775 181.256 17.2578 186.872 17.738C197.649 18.6718 208 16.4042 218.295 13.6297C231.341 10.1082 244.415 6.64005 257.546 3.43872C265.629 1.46457 273.74 1.8114 281.454 5.19949C289.31 8.64093 296.627 12.8293 302.753 18.6984C308.822 24.4875 314.352 30.6768 319.23 37.3996C319.717 38.074 318.942 38.8827 318.223 38.4653C316.193 37.2876 314.337 35.9627 312.452 34.6518C302.072 27.4488 290.444 23.9807 277.512 24.2474C271.726 24.3541 266.309 25.7947 261.063 27.8223C255.986 29.7697 251.137 29.423 246.23 27.4755C245.181 27.0486 244.16 26.5684 243.082 26.3017C241.621 25.958 240.3 27.4262 240.499 28.9142C240.987 32.5764 243.017 35.8228 243.767 39.5498ZM551.185 136.981C551.068 137.148 550.862 137.23 550.664 137.182C550.39 137.115 550.206 136.845 550.243 136.564C550.317 136.023 550.38 135.468 550.51 134.96C552.268 128.638 550.765 122.849 546.795 117.727C544.753 115.085 542.172 112.765 539.62 110.55C536.84 108.149 534.118 105.828 532.501 102.52C531.367 100.146 529.268 99.1321 526.46 99.1588C521.015 99.2655 515.57 99.3989 510.153 99.2122C506.211 99.0788 502.212 98.732 498.383 97.905C487.635 95.5573 480.176 89.6615 477.085 79.3905C476.404 77.1496 475.553 74.9087 475.213 72.6143C474.192 65.4647 473.369 58.2617 472.462 51.0854C471.498 43.5355 468.917 36.5993 463.472 30.7569C462.927 30.1809 463.647 29.2716 464.388 29.5517C470.516 31.8665 475.116 35.3358 478.049 40.7343C479.382 43.1887 480.743 45.6431 482.161 48.0974C484.629 52.3926 487.947 55.9674 492.172 58.7952C496.455 61.6764 501.106 63.8107 506.154 65.2246C512.422 66.9853 518.718 68.7995 525.042 70.3735C536.982 73.308 546.71 79.1504 554.027 88.6477C560.606 97.158 563.017 106.389 561.06 116.686C559.634 124.233 555.618 130.692 551.185 136.981ZM367.523 238.665C367.959 237.654 369.653 237.553 369.882 238.63C371.016 244.046 372.406 249.435 373.087 254.904C373.54 258.559 373.484 262.427 372.775 266.055C370.988 275.366 365.997 283.209 358.651 289.585C351.561 295.748 344.244 301.644 336.984 307.593C333.467 310.474 329.723 313.035 325.271 314.582C318.237 317.063 311.658 316.343 305.787 311.834C300.512 307.779 297.307 302.364 295.719 296.255C294.755 292.573 294.84 288.465 298.3 285.93C300.739 284.17 302.951 282.489 304.369 279.928C304.604 279.487 305.313 279.63 305.812 279.666C306.096 279.686 306.389 279.713 306.666 279.768C315.345 281.875 323.711 280.915 331.936 277.794C340.671 274.486 347.25 268.803 352.412 261.547C353.972 259.359 354.993 256.798 356.638 254.664C360.503 249.601 364.853 244.856 367.523 238.665ZM303.162 312.79C304.351 313.989 304.252 316.158 302.724 316.877C294.783 320.638 286.304 321.572 277.625 320.371C271.358 319.518 265.856 316.69 260.552 313.569C255.362 310.527 250.144 307.539 244.954 304.498C243.621 303.724 242.26 302.924 241.012 301.99C237.495 299.323 236.332 295.854 237.24 291.719C238.232 287.104 240.7 283.449 244.784 280.755C251.335 276.406 258.312 272.912 266.423 272.165C275.271 271.364 283.156 272.858 287.977 281.022C288.657 282.195 290.274 282.889 291.493 283.743C291.543 283.777 291.592 283.81 291.641 283.843C293.181 284.882 293.913 286.723 293.546 288.544C291.547 298.483 296.342 305.919 303.162 312.79ZM120.316 291.071C120.099 291.214 119.811 291.182 119.632 290.994C119.417 290.767 119.442 290.404 119.682 290.204C127.139 283.996 130.558 275.598 133.923 267.176C135.227 263.894 136.362 260.533 137.836 257.332C142.431 247.488 150.003 240.311 160.128 235.349C173.372 228.866 187.581 225.718 202.243 223.958C203.19 223.843 204.137 223.728 205.08 223.617C206.112 223.496 206.663 224.464 205.788 225.025C202.47 227.052 199.067 228.973 195.862 231.161C185.624 238.097 176.662 246.42 167.53 254.531C163.332 258.239 159.504 262.294 155.165 265.869C149.209 270.804 143.111 275.553 136.815 280.115C131.491 283.949 125.841 287.427 120.316 291.071ZM385.017 156.25C384.615 155.948 385.085 155.287 385.583 155.354C387.752 155.644 389.533 156.555 391.209 157.583C397.477 161.371 402.78 166.067 406.637 172.203C412.111 180.9 415.599 190.29 418.208 200.054C421.129 211.126 424.674 221.93 430.035 232.255C433.75 239.404 436.529 246.981 439.592 254.424C440.399 256.347 440.747 258.438 441.289 260.47C441.339 260.658 441.25 260.855 441.067 260.92C440.893 260.982 440.701 260.89 440.626 260.721C437.238 253.121 431.69 247.012 425.809 241.085C421.385 236.656 417.017 232.174 412.82 227.559C406.297 220.383 401.901 212.193 400.228 202.802C398.753 194.425 397.221 186.048 395.577 177.672C394.02 169.741 391.42 162.208 385.1 156.318C385.07 156.29 385.049 156.274 385.017 156.25ZM136.474 48.737C136.599 44.9909 141.379 43.5461 143.626 46.5458C145.162 48.5958 146.689 50.6101 148.245 52.606C154.654 60.8495 156.469 70 154.399 79.8708C152.924 86.8604 151.279 93.7966 149.606 100.759C147.025 111.537 145.692 122.369 147.989 133.36C148.45 135.627 149.117 137.82 149.719 140.057C149.768 140.239 149.674 140.431 149.503 140.511C149.336 140.59 149.14 140.524 149.045 140.365C147.981 138.568 146.806 136.812 145.862 134.96C138.772 121.115 135.057 106.442 135.029 91.1555C134.972 77.3097 135.936 63.4638 136.447 49.618C136.455 49.3246 136.464 49.0309 136.474 48.737ZM238.715 124.005C241.967 124.481 241.988 127.892 239.001 129.263C237.874 129.78 236.781 130.333 235.737 130.959C230.859 133.84 226.066 136.935 221.642 140.403C213.247 146.965 204.654 153.181 194.444 157.103C192.345 157.903 190.417 159.051 188.431 160.091C181.313 163.799 175.783 169.028 171.812 175.724C171.546 176.174 170.847 175.896 170.903 175.376C171.122 173.365 171.534 171.431 172.153 169.562C172.862 167.454 173.627 165.24 174.875 163.399C180.49 155.156 186.021 146.832 192.09 138.882C197.166 132.239 204.228 127.784 212.538 125.196C220.564 122.689 228.732 122.422 237.013 123.756C237.578 123.841 238.146 123.921 238.715 124.005ZM369.264 490.325C369.096 490.424 368.881 490.39 368.751 490.244C368.631 490.109 368.615 489.911 368.709 489.756C369.019 489.244 369.32 488.711 369.683 488.255C373.54 483.32 376.518 477.984 378.645 472.195C380.092 468.273 381.623 464.378 383.155 460.483C386.842 451.173 393.62 444.663 403.432 441.009C408.367 439.168 413.387 437.487 418.407 435.86C424.561 433.859 430.403 431.405 435.026 426.869C435.262 426.648 435.707 427.05 435.693 427.373C435.692 427.403 435.687 427.43 435.678 427.456C432.077 438.074 426.461 447.358 416.251 453.627C413.869 455.094 411.543 456.588 409.133 458.002C403.716 461.177 398.895 465.019 394.641 469.5C387.919 476.597 380.574 483.079 372.236 488.522C371.28 489.178 370.254 489.745 369.264 490.325ZM22.6359 212.593C21.5376 213.454 20.2544 212.491 20.9668 211.292C27.3772 200.494 44.5135 183.62 58.512 174.47C69.9795 166.988 88.5757 158.64 101.133 154.566C104.342 153.525 105.191 156.045 102.357 157.877C96.2031 161.852 90.6444 166.467 85.3694 171.509C73.0609 183.301 58.9374 192.825 42.9988 199.948C35.625 203.256 28.8469 207.524 22.6359 212.593Z"/>
</mask>
<path d="M139.576 281.478C139.709 281.591 139.734 281.801 139.626 281.939C138.845 282.946 138.083 283.933 137.297 284.943C122.72 303.831 111.773 324.426 104.825 346.836C101.506 357.56 100.372 368.605 101.081 379.73C101.592 387.92 102.839 396.056 106.413 403.686C107.037 405.047 107.746 406.407 108.426 407.741C113.418 417.319 121.444 423.134 132.675 424.922C133.894 425.109 135.114 425.375 136.333 425.589C143.735 426.949 149.578 430.471 153.378 436.687C155.93 440.848 158.398 445.037 160.865 449.225C163.673 454.027 166.849 458.536 171.302 462.164C175.159 465.312 179.47 467.873 184.574 468.113C188.573 468.3 192.714 467.713 196.628 466.859C200.683 465.979 204.625 464.538 208.511 463.071C212.963 461.364 217.501 460.243 222.351 460.19C223.91 460.163 225.527 459.896 227.002 459.39C237.297 455.788 246.4 450.693 252.583 441.756C258.624 433.005 262.878 423.535 266.111 413.584C266.424 412.594 267.861 412.708 268.045 413.73C268.264 414.939 268.473 416.052 268.72 417.159C270.081 423.188 272.577 428.817 276.548 433.672C281.142 439.248 283.638 445.464 284.772 452.32C285.226 455.148 286.077 457.922 286.786 460.723C289.196 470.114 294.358 478.224 300.569 485.694C307.801 494.391 317.869 498.953 329.156 501.14C338.373 502.901 347.392 501.861 356.212 498.899C367.415 495.138 376.972 488.949 385.594 481.399C389.479 477.984 393.223 474.382 396.824 470.701C400.767 466.673 405.106 463.124 410.069 460.243C410.749 459.843 411.373 459.39 412.082 459.043C426.688 451.573 434.714 439.595 439.082 424.895C442.57 413.21 443.08 401.392 441.918 389.414C441.721 387.295 444.19 386.696 445.129 388.605C445.174 388.696 445.219 388.788 445.264 388.88C452.354 403.366 463.415 414.304 478.588 421.4C488.486 426.042 498.894 427.243 509.557 423.775C515.343 421.907 520.363 418.813 524.645 414.758C537.039 402.993 545.377 389.28 547.39 372.527C548.184 365.964 548.78 359.321 550.567 352.972C552.892 344.648 556.182 336.565 559.245 328.428C561.939 321.278 564.095 314.022 564.804 306.446C565.456 299.669 564.435 293.053 562.45 286.544C557.997 271.978 551.162 258.505 541.803 246.127C531.31 232.308 517.328 222.597 501.305 215.181C488.117 209.071 474.305 204.776 459.841 202.349C458.896 202.187 459.142 201.012 460.066 200.754C460.499 200.634 460.934 200.521 461.373 200.428C480.63 196.533 497.022 187.649 511.316 175.084C511.826 174.657 512.337 174.23 512.762 173.723C518.69 166.387 526.857 161.452 534.288 155.689C537.266 153.368 540.272 151.101 543.136 148.7C553.091 140.323 560.408 130.265 563.216 117.86C565.513 107.802 563.811 98.2251 557.628 89.4214C550.028 78.6169 539.733 71.5739 526.347 68.3726C519.001 66.6118 511.741 64.5043 504.566 62.2367C494.697 59.0887 487.124 53.3263 482.7 44.2292C482.218 43.2687 481.651 42.335 481.169 41.3746C476.064 31.0236 466.705 26.5417 455.332 25.0211C442.513 23.3137 430.29 26.0882 418.378 30.0365C394.102 38.1199 373.569 51.3521 357.29 70.2133C353.773 74.295 350.71 78.6435 348.64 83.5522C348.336 84.2188 347.319 84.0755 347.014 83.4094C346.82 82.9855 346.65 82.5917 346.513 82.1917C338.458 60.1291 326.178 40.3609 310.041 22.7001C306.581 18.9119 302.611 15.5238 298.612 12.2158C293.025 7.60049 286.389 4.53256 279.469 2.05151C271.301 -0.883026 262.963 -0.37619 254.738 1.73135C240.983 5.22614 227.257 8.93436 213.53 12.5625C207.206 14.2432 200.768 15.7639 194.189 15.7906C188.46 15.8173 182.674 15.177 176.974 14.4033C169.231 13.3362 161.574 11.6822 153.718 12.2691C150.712 12.4825 147.649 13.0428 144.756 13.8698C139.992 15.257 136.872 18.4584 135.653 23.0203C134.972 25.5814 134.546 28.2491 134.376 30.8902C134.149 33.9582 134.405 37.0795 134.291 40.1741C133.923 49.538 133.44 58.9286 133.1 68.2925C132.731 78.8303 131.597 89.3947 132.987 99.9325C134.603 112.364 137.439 124.529 143.537 135.761C145.834 140.003 149.067 143.791 151.875 147.766C152.567 148.711 151.839 149.993 150.691 149.759C148.7 149.354 146.87 148.981 145.04 148.619C131.37 146.005 117.899 147.366 104.825 151.261C79.0166 158.997 55.449 170.575 36.4191 189.17C20.5089 204.723 9.33484 222.997 2.04619 243.379C0.287844 248.261 -0.307727 253.33 0.146041 258.506C0.713251 265.175 4.11651 268.456 11.4052 268.776C15.9428 268.963 20.4805 269.017 25.0182 268.75C30.2933 268.43 33.6965 270.324 36.2773 274.726C45.1258 289.879 58.9657 298.362 77.0881 300.87C93.1685 303.111 108.228 300.283 122.125 292.413C127.456 289.398 132.448 285.85 137.609 282.542C138.152 282.178 138.717 281.836 139.264 281.475C139.363 281.41 139.486 281.401 139.576 281.478ZM271.286 321.225C272.38 321.596 273.209 322.607 273.144 323.759C272.492 330.642 271.641 337.525 271.216 344.435C270.79 351.344 270.649 358.281 270.592 365.217C270.507 376.768 269.174 388.16 267.075 399.524C264.664 412.437 260.212 424.628 253.519 436.153C247.79 445.997 239.253 452.587 228.278 456.508C225.584 457.469 222.606 458.136 219.713 458.242C215.658 458.402 211.942 459.416 208.199 460.75C203.661 462.351 199.038 463.845 194.387 465.152C185.454 467.66 177.825 465.285 171.5 459.123C169.231 456.909 167.189 454.454 165.431 451.866C163.162 448.558 161.376 444.984 159.248 441.569C157.348 438.527 155.42 435.54 153.293 432.632C150.655 429.004 147.053 426.442 142.601 425.082C140.247 424.362 137.865 423.535 135.426 423.214C121.728 421.534 113.248 414.011 108.256 402.299C105.704 396.296 104.257 390.081 103.662 383.705C102.442 370.872 103.435 358.147 107.462 345.769C114.042 325.547 123.741 306.686 136.617 289.372C141.154 283.263 146.259 277.5 151.534 271.951C156.214 267.069 161.404 262.587 166.537 258.132C174.875 250.902 183.213 243.673 191.806 236.736C198.102 231.668 205.022 227.372 212.68 224.251C213.195 224.041 213.716 223.849 214.264 223.659C215.769 223.134 217.317 224.561 216.877 226.092C212.992 239.671 211.829 253.357 215.374 267.149C218.068 277.633 223.286 286.651 233.581 292.333C234.192 292.678 234.337 293.5 234.38 294.2C234.679 299.09 237.028 303.069 241.863 305.405C251.904 310.254 260.421 317.542 271.286 321.225ZM375.887 259.058C375.908 258.859 376.061 258.704 376.259 258.672C376.434 258.643 376.617 258.704 376.722 258.846C377.422 259.789 378.085 260.767 378.844 261.653C384.686 268.536 389.11 276.166 392.4 284.436C397.023 296.015 401.759 307.513 406.609 319.011C410.551 328.348 416.195 336.778 423.994 343.581C429.496 348.383 432.786 354.092 434.572 360.708C438.94 376.875 441.464 393.255 439.961 410.009C439.053 420.146 434.062 427.51 423.994 431.538C421.612 432.498 419.144 433.299 416.705 434.152C411.629 435.94 406.439 437.54 401.447 439.515C391.748 443.329 384.998 449.946 381.283 459.203C379.638 463.285 378.135 467.42 376.603 471.528C373.711 479.265 369.457 486.254 363.558 492.31C362.452 493.457 361.033 494.498 359.559 495.138C351.164 498.659 342.457 500.714 333.155 499.46C320.818 497.779 310.126 493.164 302.157 483.88C296.06 476.757 292.458 468.38 289.14 459.896C288.601 458.509 288.374 457.015 288.005 455.548C284.177 440.342 286.048 442.529 277.115 430.097C269.911 420.093 268.805 408.675 270.053 396.937C271.046 387.519 272.322 378.102 272.889 368.658C273.513 358.334 273.456 347.983 273.768 337.632C273.882 334.324 274.165 331.043 274.562 327.761C274.641 327.157 274.772 326.558 274.928 325.963C275.433 324.041 277.36 322.823 279.343 322.963C289.337 323.671 298.547 322.221 306.62 317.417C307.516 316.884 308.572 316.666 309.591 316.885C311.922 317.388 313.993 317.902 316.082 318.077C323.654 318.717 330.149 315.916 335.736 311.488C344.641 304.391 353.631 297.322 361.969 289.665C369.4 282.836 374.249 274.405 375.356 264.428C375.542 262.598 375.704 260.816 375.887 259.058ZM358.961 154.275C356.354 154.736 354.063 152.601 354.389 149.973C354.821 146.497 355.229 143.163 355.305 139.816C355.446 133.333 355.049 126.824 354.794 120.314C354.397 110.577 352.242 101.106 349.689 91.7157C349.065 89.3947 349.15 87.3405 350.086 85.1796C352.185 80.4043 355.106 76.1092 358.538 72.1075C373.172 55.0604 391.493 42.6552 412.933 34.2783C424.93 29.583 437.323 26.4084 450.511 26.7018C454.708 26.7818 458.197 28.1424 460.976 31.157C464.464 34.8919 467.385 39.027 468.463 43.909C469.711 49.6181 470.59 55.4338 471.186 61.2496C471.866 67.9457 472.916 74.5351 475.099 80.9645C478.247 90.195 484.685 96.2242 494.47 99.1588C502.042 101.426 509.784 101.853 517.64 101.373C520.249 101.213 522.858 101.16 525.468 101.106C527.822 101.053 529.665 101.933 530.658 104.041C532.076 107.055 534.401 109.35 537.039 111.404C538.428 112.498 539.818 113.591 541.123 114.792C549.801 122.689 551.843 133.573 543.902 143.231C540.953 146.805 537.351 150.007 533.721 153.021C529.381 156.596 524.645 159.771 520.136 163.186C518.633 164.306 517.186 165.533 515.939 166.894C497.958 186.609 474.958 197.307 447.76 200.428C439.649 201.362 431.566 202.295 424.192 205.95C423.274 206.382 422.249 205.482 421.956 204.509C421.518 203.051 421.103 201.647 420.732 200.214C417.925 189.623 414.209 179.379 408.084 170.015C404.113 163.986 398.753 159.317 392.429 155.582C388.827 153.448 384.8 152.168 380.517 152.354C375.1 152.568 369.683 152.968 364.295 153.502C362.512 153.679 360.745 153.96 358.961 154.275ZM177.343 156.446C176.487 157.815 174.882 158.543 173.317 158.148C162.272 155.363 153.305 147.446 150.542 135.761C148.131 125.597 148.698 115.432 150.882 105.321C152.896 95.9308 155.051 86.5935 156.951 77.1763C157.887 72.5343 157.462 67.8657 156.157 63.2504C154.456 57.2212 150.712 52.3125 146.883 47.3771C144.019 43.6689 141.353 39.854 138.829 35.9324C136.588 32.4909 136.447 28.7293 137.553 24.8077C139.68 17.1511 144.246 16.4842 150.173 17.3646C151.591 17.578 153.038 18.0849 154.342 18.7252C157.15 20.1124 159.986 21.473 162.595 23.1537C169.146 27.3687 175.527 31.824 182.022 36.0924C189.254 40.8144 197.025 44.5226 205.675 46.23C210.751 47.2171 215.941 47.9641 221.103 48.3642C228.391 48.8978 235.595 48.0708 242.43 45.4297C246.457 43.8824 247.223 42.335 246.003 38.4401C245.266 36.0924 244.33 33.7981 243.564 31.4771C243.199 30.4075 244.364 29.4226 245.459 29.7C247.84 30.3027 250.068 30.8928 252.328 31.237C256.752 31.904 260.807 30.3834 264.835 28.9427C272.208 26.3016 279.781 25.7148 287.551 26.9686C303.802 29.583 316.139 38.28 326.887 49.4047C328.107 50.6585 329.128 52.0991 330.035 53.5664C338.147 66.5052 343.989 80.351 348.016 94.837C351.192 106.309 353.064 118.02 352.922 129.892C352.837 136.801 352.412 143.711 351.986 150.62C351.919 151.726 351.623 152.814 351.305 153.888C350.902 155.247 349.848 156.34 348.501 156.782C339.242 159.824 330.759 163.898 322.898 169.084C321.402 170.071 319.446 169.985 317.971 168.968C311.407 164.444 304.181 162.703 296.414 163.36C294.367 163.533 292.403 162.32 291.842 160.344C291.19 158.046 290.58 155.873 290.047 153.688C288.175 146.272 284.942 139.576 279.1 134.16C274.562 129.972 269.23 127.544 262.764 127.277C258.595 127.09 254.398 126.717 250.484 125.036C242.912 121.782 234.886 120.821 226.633 120.848C211.177 120.901 198.67 126.637 189.481 138.242C185.624 143.097 182.532 148.486 179.129 153.635C178.511 154.579 177.919 155.523 177.343 156.446ZM424.036 211.866C423.58 210.221 424.307 208.474 425.835 207.712C429.141 206.063 432.497 205.1 435.962 204.376C442.967 202.936 449.972 201.922 457.119 203.629C460.834 204.51 464.606 205.257 468.35 206.084C483.097 209.312 496.37 215.047 506.92 225.612C513.414 232.094 519.285 238.897 522.944 247.247C528.36 259.519 529.041 272.245 527.538 285.237C526.262 296.228 524.872 307.219 523.426 318.21C522.547 324.933 522.887 331.656 524.163 338.272C525.609 345.902 527.538 353.452 529.438 361.002C532.388 372.713 533.919 384.452 531.82 396.457C530.487 404.06 526.404 410.302 520.391 415.184C509.557 423.961 497.05 425.775 483.834 420.947C462.252 413.05 450.284 396.803 442.627 377.222C440.074 370.659 438.571 363.75 436.387 357.027C434.742 351.958 431.935 347.529 427.709 343.875C419.144 336.458 412.763 327.574 408.509 317.41C403.631 305.832 398.895 294.2 394.215 282.542C390.042 272.186 383.795 263.104 376.659 255.298C376.197 254.793 375.864 254.181 375.709 253.514C374.359 247.731 373.565 242.286 371.555 237.27C369.774 232.777 369.806 228.387 369.861 223.477C369.869 222.856 370.779 222.584 371.016 223.157C376.518 237.537 385.877 249.702 396.144 261.253C402.667 268.59 410.778 274.352 420.023 278.407C423.171 279.794 426.603 280.701 430.006 281.342C435.054 282.302 440.698 279.874 441.974 276.059C443.08 272.805 444.357 269.523 444.101 265.922C443.931 263.468 442.853 261.2 442.683 258.852C442.4 255.251 441.379 251.943 439.932 248.715C436.217 240.365 432.388 232.068 428.531 223.771C426.742 219.902 425.181 215.997 424.036 211.866ZM219.767 217.967C219.228 219.247 218.086 220.184 216.721 220.445C215.716 220.638 214.751 220.818 213.786 220.943C205.278 222.01 196.713 222.784 188.261 224.171C176.832 226.065 165.913 229.533 155.817 235.082C146.997 239.911 140.445 246.661 136.248 255.358C134.49 259.039 133.242 262.934 131.625 266.669C129.64 271.204 127.91 275.873 125.386 280.115C119.6 289.745 111.036 296.175 99.2376 298.309C91.3818 299.723 83.5259 299.856 75.6417 298.362C62.6242 295.908 51.4502 290.652 43.3674 280.435C41.2121 277.714 39.2268 274.832 37.4117 271.898C35.1996 268.323 31.9098 266.616 27.6841 266.402C25.3018 266.295 22.9195 266.589 20.5372 266.562C17.0205 266.536 13.5038 266.616 10.0439 266.269C5.59126 265.842 3.60602 263.681 2.67013 259.573C1.67751 255.251 2.4716 251.089 3.5493 246.927C7.54813 231.321 15.9145 218.382 30.35 209.392C35.2563 206.35 40.4463 203.683 45.5512 200.935C48.7843 199.201 52.1876 197.68 55.449 195.973C67.7291 189.543 78.336 181.166 88.0352 171.616C94.2178 165.507 101.28 160.251 109.107 156.063C117.303 151.687 125.953 148.753 135.653 149.66C138.006 149.873 140.389 149.953 142.743 150.327C150.116 151.501 157.405 152.915 163.928 156.703C166.395 158.144 169.288 158.89 171.982 159.984C173.283 160.528 173.819 162.048 173.12 163.272C172.982 163.512 172.849 163.749 172.72 163.986C170.252 168.495 168.579 173.243 168.466 178.312C168.324 183.674 171.557 186.609 177.201 186.822C181.285 186.982 185.028 185.862 188.687 184.394C192.657 182.794 196.514 181.033 200.513 179.539C207.178 177.031 213.956 175.377 221.358 176.391C229.129 177.458 236.729 178.872 243.99 181.753C245.344 182.287 245.398 184.216 244.239 185.096C232.632 193.909 225.17 205.128 219.767 217.967ZM272.707 260.569C272.476 260.532 272.238 260.568 272.033 260.68C271.621 260.906 271.108 260.818 270.795 260.467C269.234 258.719 267.641 256.966 266.139 255.171C263.105 251.516 260.978 247.408 259.361 243.059C255.532 232.761 255.107 222.224 256.638 211.499C259.134 194.025 268.011 180.313 283.524 170.335C288.913 166.867 294.727 165.347 301.136 165.613C310.722 166.04 318.124 170.095 322.889 177.832C330.461 190.104 331.709 203.416 329.298 217.128C327.455 227.586 322.718 237.057 316.734 245.914C314.834 248.741 312.253 251.302 309.531 253.49C305.277 256.931 300.229 257.812 294.868 255.998C290.529 254.531 286.445 254.771 282.446 256.878C280.858 257.705 279.043 258.239 277.682 259.306C276.138 260.633 274.518 260.856 272.707 260.569ZM326.542 172.058C325.511 171.71 325.216 170.174 326.15 169.615C336.02 163.586 346.513 158.89 358.112 156.81C363.558 155.849 369.116 155.502 374.561 154.595C377.993 154.035 380.517 155.129 382.814 157.29C387.04 161.318 390.33 165.907 391.549 171.482C393.535 180.633 395.463 189.837 396.995 199.067C398.923 210.859 403.517 221.397 412.054 230.307C416.535 234.976 421.243 239.457 425.582 244.233C429.269 248.261 432.871 252.396 436.019 256.825C438.202 259.893 439.791 263.388 441.095 266.882C443.449 273.125 438.656 279.154 431.708 279.234C428.078 279.261 424.788 278.22 421.64 276.753C411.997 272.218 403.801 266.109 396.853 258.265C386.615 246.714 377.908 234.389 372.321 220.196C369.825 213.82 367.301 207.417 364.181 201.282C356.553 186.262 344.726 175.804 326.916 172.176C326.791 172.14 326.667 172.1 326.542 172.058ZM251.162 180.841C249.933 181.465 248.478 181.474 247.238 180.871C241.111 177.888 234.596 176.309 227.966 175.057C218.04 173.19 208.369 173.67 199.038 177.592C195.408 179.112 191.863 180.793 188.148 182.1C185.113 183.167 181.937 184.074 178.732 184.608C175.888 185.085 173.917 184.465 172.315 182.686C171.386 181.655 171.404 180.121 172.046 178.891C172.454 178.109 172.889 177.305 173.372 176.525C178.335 168.441 185.851 162.999 194.756 159.397C205.646 154.996 214.92 148.539 223.967 141.47C228.902 137.602 234.461 134.427 239.934 131.199C243.649 129.011 247.847 128.078 252.299 128.558C255.22 128.878 258.142 129.091 261.063 129.251C268.21 129.625 274.165 132.213 278.901 137.335C284.347 143.231 287.296 150.167 288.828 157.717C289.08 158.964 289.227 160.236 289.342 161.404C289.494 162.947 288.754 164.458 287.43 165.267C284.707 166.931 282.28 168.37 279.979 169.962C277.381 171.76 274.932 173.717 272.283 175.766C271.472 176.392 270.45 176.665 269.427 176.607C263.07 176.246 257.037 177.856 251.162 180.841ZM533.876 400.358C533.768 400.494 533.581 400.539 533.423 400.465C533.279 400.397 533.194 400.245 533.209 400.086C533.251 399.668 533.287 399.254 533.38 398.858C535.025 392.161 535.479 385.385 534.883 378.556C534.146 370.152 532.217 361.962 529.949 353.825C527.538 345.155 525.666 336.431 525.496 327.414C525.269 314.876 527.453 302.604 529.211 290.252C530.487 281.128 530.941 272.031 529.722 262.854C528.105 250.796 523.312 240.044 514.946 230.787C512.025 227.533 508.763 224.571 505.644 221.477C505.331 221.157 505.019 220.844 504.703 220.53C504.229 220.06 504.491 219.261 505.076 219.583C513.244 223.824 521.129 228.413 527.822 234.602C536.358 242.499 543.477 251.356 548.95 261.44C553.403 269.63 557.373 277.927 560.096 286.784C562.45 294.467 563.102 302.204 561.911 310.154C560.862 317.063 558.394 323.546 556.012 330.109C553.204 337.845 550.085 345.555 548.014 353.479C546.256 360.255 545.859 367.351 544.724 374.287C543.363 382.691 540.612 390.641 535.763 397.87C535.192 398.7 534.527 399.529 533.876 400.358ZM236.683 285.996C235.423 288.059 232.775 289.094 230.846 287.639C227.042 284.77 224.256 281.193 221.982 277.18C218.153 270.377 216.452 262.987 215.941 255.384C215.374 246.394 216.14 237.483 218.635 228.76C222.606 214.727 229.242 202.002 240.161 191.544C246.23 185.755 253.207 181.273 261.8 179.512C262.986 179.269 264.188 178.996 265.467 178.884C267.104 178.742 267.866 180.624 266.848 181.913C261.658 188.369 257.83 195.439 255.873 203.362C253.604 212.46 252.696 221.61 254.001 230.947C255.504 241.405 258.822 251.036 266.451 259.119C270.138 263.041 273.626 264.054 278.703 262C278.769 261.973 278.835 261.946 278.901 261.919C280.664 261.199 282.768 261.803 283.55 263.539C284.674 266.034 284.656 268.023 283.489 269.967C282.66 271.348 280.86 271.61 279.325 271.122C270.995 268.471 262.664 269.586 254.568 272.885C247.392 275.8 240.717 279.394 236.683 285.996ZM325.668 177.698C324.64 176.062 326.078 174.059 327.955 174.521C334.569 176.149 340.38 178.601 345.464 182.474C359.729 193.278 366.904 207.551 367.67 224.625C368.067 233.375 364.692 241.058 358.963 247.941C356.241 251.196 353.858 254.717 351.391 258.159C350.512 259.386 349.973 260.853 349.065 262.027C342.939 269.87 334.97 275.232 324.874 277.58C318.72 279.021 312.509 279.074 306.44 277.287C302.214 276.033 299.888 272.111 301.306 268.216C303.008 263.548 305.702 259.333 310.013 256.291C313.615 253.757 316.678 250.769 318.975 247.194C328.391 232.601 334.375 217.155 332.389 199.628C331.51 191.918 329.752 184.528 325.668 177.698ZM243.767 39.5498C244.102 41.2126 242.975 42.7357 241.386 43.3277C239.889 43.8851 238.437 44.4175 236.928 44.7893C228.562 46.8702 220.11 46.3633 211.63 45.1628C200.286 43.5355 190.275 39.027 181.001 32.811C175.102 28.8361 169.175 24.9144 163.162 21.0728C159.305 18.5918 155.165 16.6176 150.513 15.8439C149.927 15.7436 150.291 14.757 150.884 14.7048C157.566 14.1163 163.836 14.5303 170.082 15.4971C175.669 16.3775 181.256 17.2578 186.872 17.738C197.649 18.6718 208 16.4042 218.295 13.6297C231.341 10.1082 244.415 6.64005 257.546 3.43872C265.629 1.46457 273.74 1.8114 281.454 5.19949C289.31 8.64093 296.627 12.8293 302.753 18.6984C308.822 24.4875 314.352 30.6768 319.23 37.3996C319.717 38.074 318.942 38.8827 318.223 38.4653C316.193 37.2876 314.337 35.9627 312.452 34.6518C302.072 27.4488 290.444 23.9807 277.512 24.2474C271.726 24.3541 266.309 25.7947 261.063 27.8223C255.986 29.7697 251.137 29.423 246.23 27.4755C245.181 27.0486 244.16 26.5684 243.082 26.3017C241.621 25.958 240.3 27.4262 240.499 28.9142C240.987 32.5764 243.017 35.8228 243.767 39.5498ZM551.185 136.981C551.068 137.148 550.862 137.23 550.664 137.182C550.39 137.115 550.206 136.845 550.243 136.564C550.317 136.023 550.38 135.468 550.51 134.96C552.268 128.638 550.765 122.849 546.795 117.727C544.753 115.085 542.172 112.765 539.62 110.55C536.84 108.149 534.118 105.828 532.501 102.52C531.367 100.146 529.268 99.1321 526.46 99.1588C521.015 99.2655 515.57 99.3989 510.153 99.2122C506.211 99.0788 502.212 98.732 498.383 97.905C487.635 95.5573 480.176 89.6615 477.085 79.3905C476.404 77.1496 475.553 74.9087 475.213 72.6143C474.192 65.4647 473.369 58.2617 472.462 51.0854C471.498 43.5355 468.917 36.5993 463.472 30.7569C462.927 30.1809 463.647 29.2716 464.388 29.5517C470.516 31.8665 475.116 35.3358 478.049 40.7343C479.382 43.1887 480.743 45.6431 482.161 48.0974C484.629 52.3926 487.947 55.9674 492.172 58.7952C496.455 61.6764 501.106 63.8107 506.154 65.2246C512.422 66.9853 518.718 68.7995 525.042 70.3735C536.982 73.308 546.71 79.1504 554.027 88.6477C560.606 97.158 563.017 106.389 561.06 116.686C559.634 124.233 555.618 130.692 551.185 136.981ZM367.523 238.665C367.959 237.654 369.653 237.553 369.882 238.63C371.016 244.046 372.406 249.435 373.087 254.904C373.54 258.559 373.484 262.427 372.775 266.055C370.988 275.366 365.997 283.209 358.651 289.585C351.561 295.748 344.244 301.644 336.984 307.593C333.467 310.474 329.723 313.035 325.271 314.582C318.237 317.063 311.658 316.343 305.787 311.834C300.512 307.779 297.307 302.364 295.719 296.255C294.755 292.573 294.84 288.465 298.3 285.93C300.739 284.17 302.951 282.489 304.369 279.928C304.604 279.487 305.313 279.63 305.812 279.666C306.096 279.686 306.389 279.713 306.666 279.768C315.345 281.875 323.711 280.915 331.936 277.794C340.671 274.486 347.25 268.803 352.412 261.547C353.972 259.359 354.993 256.798 356.638 254.664C360.503 249.601 364.853 244.856 367.523 238.665ZM303.162 312.79C304.351 313.989 304.252 316.158 302.724 316.877C294.783 320.638 286.304 321.572 277.625 320.371C271.358 319.518 265.856 316.69 260.552 313.569C255.362 310.527 250.144 307.539 244.954 304.498C243.621 303.724 242.26 302.924 241.012 301.99C237.495 299.323 236.332 295.854 237.24 291.719C238.232 287.104 240.7 283.449 244.784 280.755C251.335 276.406 258.312 272.912 266.423 272.165C275.271 271.364 283.156 272.858 287.977 281.022C288.657 282.195 290.274 282.889 291.493 283.743C291.543 283.777 291.592 283.81 291.641 283.843C293.181 284.882 293.913 286.723 293.546 288.544C291.547 298.483 296.342 305.919 303.162 312.79ZM120.316 291.071C120.099 291.214 119.811 291.182 119.632 290.994C119.417 290.767 119.442 290.404 119.682 290.204C127.139 283.996 130.558 275.598 133.923 267.176C135.227 263.894 136.362 260.533 137.836 257.332C142.431 247.488 150.003 240.311 160.128 235.349C173.372 228.866 187.581 225.718 202.243 223.958C203.19 223.843 204.137 223.728 205.08 223.617C206.112 223.496 206.663 224.464 205.788 225.025C202.47 227.052 199.067 228.973 195.862 231.161C185.624 238.097 176.662 246.42 167.53 254.531C163.332 258.239 159.504 262.294 155.165 265.869C149.209 270.804 143.111 275.553 136.815 280.115C131.491 283.949 125.841 287.427 120.316 291.071ZM385.017 156.25C384.615 155.948 385.085 155.287 385.583 155.354C387.752 155.644 389.533 156.555 391.209 157.583C397.477 161.371 402.78 166.067 406.637 172.203C412.111 180.9 415.599 190.29 418.208 200.054C421.129 211.126 424.674 221.93 430.035 232.255C433.75 239.404 436.529 246.981 439.592 254.424C440.399 256.347 440.747 258.438 441.289 260.47C441.339 260.658 441.25 260.855 441.067 260.92C440.893 260.982 440.701 260.89 440.626 260.721C437.238 253.121 431.69 247.012 425.809 241.085C421.385 236.656 417.017 232.174 412.82 227.559C406.297 220.383 401.901 212.193 400.228 202.802C398.753 194.425 397.221 186.048 395.577 177.672C394.02 169.741 391.42 162.208 385.1 156.318C385.07 156.29 385.049 156.274 385.017 156.25ZM136.474 48.737C136.599 44.9909 141.379 43.5461 143.626 46.5458C145.162 48.5958 146.689 50.6101 148.245 52.606C154.654 60.8495 156.469 70 154.399 79.8708C152.924 86.8604 151.279 93.7966 149.606 100.759C147.025 111.537 145.692 122.369 147.989 133.36C148.45 135.627 149.117 137.82 149.719 140.057C149.768 140.239 149.674 140.431 149.503 140.511C149.336 140.59 149.14 140.524 149.045 140.365C147.981 138.568 146.806 136.812 145.862 134.96C138.772 121.115 135.057 106.442 135.029 91.1555C134.972 77.3097 135.936 63.4638 136.447 49.618C136.455 49.3246 136.464 49.0309 136.474 48.737ZM238.715 124.005C241.967 124.481 241.988 127.892 239.001 129.263C237.874 129.78 236.781 130.333 235.737 130.959C230.859 133.84 226.066 136.935 221.642 140.403C213.247 146.965 204.654 153.181 194.444 157.103C192.345 157.903 190.417 159.051 188.431 160.091C181.313 163.799 175.783 169.028 171.812 175.724C171.546 176.174 170.847 175.896 170.903 175.376C171.122 173.365 171.534 171.431 172.153 169.562C172.862 167.454 173.627 165.24 174.875 163.399C180.49 155.156 186.021 146.832 192.09 138.882C197.166 132.239 204.228 127.784 212.538 125.196C220.564 122.689 228.732 122.422 237.013 123.756C237.578 123.841 238.146 123.921 238.715 124.005ZM369.264 490.325C369.096 490.424 368.881 490.39 368.751 490.244C368.631 490.109 368.615 489.911 368.709 489.756C369.019 489.244 369.32 488.711 369.683 488.255C373.54 483.32 376.518 477.984 378.645 472.195C380.092 468.273 381.623 464.378 383.155 460.483C386.842 451.173 393.62 444.663 403.432 441.009C408.367 439.168 413.387 437.487 418.407 435.86C424.561 433.859 430.403 431.405 435.026 426.869C435.262 426.648 435.707 427.05 435.693 427.373C435.692 427.403 435.687 427.43 435.678 427.456C432.077 438.074 426.461 447.358 416.251 453.627C413.869 455.094 411.543 456.588 409.133 458.002C403.716 461.177 398.895 465.019 394.641 469.5C387.919 476.597 380.574 483.079 372.236 488.522C371.28 489.178 370.254 489.745 369.264 490.325ZM22.6359 212.593C21.5376 213.454 20.2544 212.491 20.9668 211.292C27.3772 200.494 44.5135 183.62 58.512 174.47C69.9795 166.988 88.5757 158.64 101.133 154.566C104.342 153.525 105.191 156.045 102.357 157.877C96.2031 161.852 90.6444 166.467 85.3694 171.509C73.0609 183.301 58.9374 192.825 42.9988 199.948C35.625 203.256 28.8469 207.524 22.6359 212.593Z" stroke="url(#paint0_linear_33_289)" stroke-opacity="0.58" stroke-width="6" mask="url(#path-1-inside-1_33_289)"/>
<defs>
<linearGradient id="paint0_linear_33_289" x1="282.5" y1="0" x2="282.5" y2="502" gradientUnits="userSpaceOnUse">
<stop stop-color="#AB8D60"/>
<stop offset="1" stop-color="#453927"/>
</linearGradient>
</defs>
</svg>
