<svg xmlns="http://www.w3.org/2000/svg" viewBox="0 0 448 512">
<symbol id="icon-cart" viewBox="0 0 576 512"><!--!Font Awesome Free 6.5.0 by @fontawesome - https://fontawesome.com License - https://fontawesome.com/license/free Copyright 2023 Fonticons, Inc.--><path d="M0 24C0 10.7 10.7 0 24 0H69.5c22 0 41.5 12.8 50.6 32h411c26.3 0 45.5 25 38.6 50.4l-41 152.3c-8.5 31.4-37 53.3-69.5 53.3H170.7l5.4 28.5c2.2 11.3 12.1 19.5 23.6 19.5H488c13.3 0 24 10.7 24 24s-10.7 24-24 24H199.7c-34.6 0-64.3-24.6-70.7-58.5L77.4 54.5c-.7-3.8-4-6.5-7.9-6.5H24C10.7 48 0 37.3 0 24zM128 464a48 48 0 1 1 96 0 48 48 0 1 1 -96 0zm336-48a48 48 0 1 1 0 96 48 48 0 1 1 0-96z"/>
</symbol>
<symbol id="icon-login" viewBox="0 0 448 512"><!--!Font Awesome Free 6.5.0 by @fontawesome - https://fontawesome.com License - https://fontawesome.com/license/free Copyright 2023 Fonticons, Inc.--><path d="M224 256A128 128 0 1 0 224 0a128 128 0 1 0 0 256zm-45.7 48C79.8 304 0 383.8 0 482.3C0 498.7 13.3 512 29.7 512H418.3c16.4 0 29.7-13.3 29.7-29.7C448 383.8 368.2 304 269.7 304H178.3z"/></symbol>
<symbol id="icon-like" viewBox="0 0 512 512"><!--!Font Awesome Free 6.6.0 by @fontawesome - https://fontawesome.com License - https://fontawesome.com/license/free Copyright 2024 Fonticons, Inc.--><path d="M225.8 468.2l-2.5-2.3L48.1 303.2C17.4 274.7 0 234.7 0 192.8l0-3.3c0-70.4 50-130.8 119.2-144C158.6 37.9 198.9 47 231 69.6c9 6.4 17.4 13.8 25 22.3c4.2-4.8 8.7-9.2 13.5-13.3c3.7-3.2 7.5-6.2 11.5-9c0 0 0 0 0 0C313.1 47 353.4 37.9 392.8 45.4C462 58.6 512 119.1 512 189.5l0 3.3c0 41.9-17.4 81.9-48.1 110.4L288.7 465.9l-2.5 2.3c-8.2 7.6-19 11.9-30.2 11.9s-22-4.2-30.2-11.9zM239.1 145c-.4-.3-.7-.7-1-1.1l-17.8-20-.1-.1s0 0 0 0c-23.1-25.9-58-37.7-92-31.2C81.6 101.5 48 142.1 48 189.5l0 3.3c0 28.5 11.9 55.8 32.8 75.2L256 430.7 431.2 268c20.9-19.4 32.8-46.7 32.8-75.2l0-3.3c0-47.3-33.6-88-80.1-96.9c-34-6.5-69 5.4-92 31.2c0 0 0 0-.1 .1s0 0-.1 .1l-17.8 20c-.3 .4-.7 .7-1 1.1c-4.5 4.5-10.6 7-16.9 7s-12.4-2.5-16.9-7z"/></symbol>
<symbol id="icon-cross" viewBox="0 0 384 512"><!--!Font Awesome Free 6.6.0 by @fontawesome - https://fontawesome.com License - https://fontawesome.com/license/free Copyright 2024 Fonticons, Inc.--><path d="M342.6 150.6c12.5-12.5 12.5-32.8 0-45.3s-32.8-12.5-45.3 0L192 210.7 86.6 105.4c-12.5-12.5-32.8-12.5-45.3 0s-12.5 32.8 0 45.3L146.7 256 41.4 361.4c-12.5 12.5-12.5 32.8 0 45.3s32.8 12.5 45.3 0L192 301.3 297.4 406.6c12.5 12.5 32.8 12.5 45.3 0s12.5-32.8 0-45.3L237.3 256 342.6 150.6z"/></symbol>
<symbol id='icon-eye' viewBox="0 0 576 512"><!--!Font Awesome Free 6.5.0 by @fontawesome - https://fontawesome.com License - https://fontawesome.com/license/free Copyright 2023 Fonticons, Inc.--><path d="M288 32c-80.8 0-145.5 36.8-192.6 80.6C48.6 156 17.3 208 2.5 243.7c-3.3 7.9-3.3 16.7 0 24.6C17.3 304 48.6 356 95.4 399.4C142.5 443.2 207.2 480 288 480s145.5-36.8 192.6-80.6c46.8-43.5 78.1-95.4 93-131.1c3.3-7.9 3.3-16.7 0-24.6c-14.9-35.7-46.2-87.7-93-131.1C433.5 68.8 368.8 32 288 32zM144 256a144 144 0 1 1 288 0 144 144 0 1 1 -288 0zm144-64c0 35.3-28.7 64-64 64c-7.1 0-13.9-1.2-20.3-3.3c-5.5-1.8-11.9 1.6-11.7 7.4c.3 6.9 1.3 13.8 3.2 20.7c13.7 51.2 66.4 81.6 117.6 67.9s81.6-66.4 67.9-117.6c-11.1-41.5-47.8-69.4-88.6-71.1c-5.8-.2-9.2 6.1-7.4 11.7c2.1 6.4 3.3 13.2 3.3 20.3z"/></symbol>
<symbol id='icon-star' viewBox="0 0 576 512"><!--!Font Awesome Free 6.5.0 by @fontawesome - https://fontawesome.com License - https://fontawesome.com/license/free Copyright 2023 Fonticons, Inc.--><path d="M316.9 18C311.6 7 300.4 0 288.1 0s-23.4 7-28.8 18L195 150.3 51.4 171.5c-12 1.8-22 10.2-25.7 21.7s-.7 24.2 7.9 32.7L137.8 329 113.2 474.7c-2 12 3 24.2 12.9 31.3s23 8 33.8 2.3l128.3-68.5 128.3 68.5c10.8 5.7 23.9 4.9 33.8-2.3s14.9-19.3 12.9-31.3L438.5 329 542.7 225.9c8.6-8.5 11.7-21.2 7.9-32.7s-13.7-19.9-25.7-21.7L381.2 150.3 316.9 18z"/></symbol>
<symbol id='icon-location' viewBox="0 0 384 512"><!--!Font Awesome Free 6.5.0 by @fontawesome - https://fontawesome.com License - https://fontawesome.com/license/free Copyright 2023 Fonticons, Inc.--><path d="M215.7 499.2C267 435 384 279.4 384 192C384 86 298 0 192 0S0 86 0 192c0 87.4 117 243 168.3 307.2c12.3 15.3 35.1 15.3 47.4 0zM192 128a64 64 0 1 1 0 128 64 64 0 1 1 0-128z"/></symbol>
<symbol id='icon-mail' viewBox="0 0 512 512"><!--!Font Awesome Free 6.5.0 by @fontawesome - https://fontawesome.com License - https://fontawesome.com/license/free Copyright 2023 Fonticons, Inc.--><path d="M256 64C150 64 64 150 64 256s86 192 192 192c17.7 0 32 14.3 32 32s-14.3 32-32 32C114.6 512 0 397.4 0 256S114.6 0 256 0S512 114.6 512 256v32c0 53-43 96-96 96c-29.3 0-55.6-13.2-73.2-33.9C320 371.1 289.5 384 256 384c-70.7 0-128-57.3-128-128s57.3-128 128-128c27.9 0 53.7 8.9 74.7 24.1c5.7-5 13.1-8.1 21.3-8.1c17.7 0 32 14.3 32 32v80 32c0 17.7 14.3 32 32 32s32-14.3 32-32V256c0-106-86-192-192-192zm64 192a64 64 0 1 0 -128 0 64 64 0 1 0 128 0z"/></symbol>
<symbol id='icon-phon' viewBox="0 0 512 512"><!--!Font Awesome Free 6.5.0 by @fontawesome - https://fontawesome.com License - https://fontawesome.com/license/free Copyright 2023 Fonticons, Inc.--><path d="M164.9 24.6c-7.7-18.6-28-28.5-47.4-23.2l-88 24C12.1 30.2 0 46 0 64C0 311.4 200.6 512 448 512c18 0 33.8-12.1 38.6-29.5l24-88c5.3-19.4-4.6-39.7-23.2-47.4l-96-40c-16.3-6.8-35.2-2.1-46.3 11.6L304.7 368C234.3 334.7 177.3 277.7 144 207.3L193.3 167c13.7-11.2 18.4-30 11.6-46.3l-40-96z"/></symbol>
<symbol id='icon-home' viewBox="0 0 576 512"><!--!Font Awesome Free 6.5.0 by @fontawesome - https://fontawesome.com License - https://fontawesome.com/license/free Copyright 2023 Fonticons, Inc.--><path d="M575.8 255.5c0 18-15 32.1-32 32.1h-32l.7 160.2c0 2.7-.2 5.4-.5 8.1V472c0 22.1-17.9 40-40 40H456c-1.1 0-2.2 0-3.3-.1c-1.4 .1-2.8 .1-4.2 .1H416 392c-22.1 0-40-17.9-40-40V448 384c0-17.7-14.3-32-32-32H256c-17.7 0-32 14.3-32 32v64 24c0 22.1-17.9 40-40 40H160 128.1c-1.5 0-3-.1-4.5-.2c-1.2 .1-2.4 .2-3.6 .2H104c-22.1 0-40-17.9-40-40V360c0-.9 0-1.9 .1-2.8V287.6H32c-18 0-32-14-32-32.1c0-9 3-17 10-24L266.4 8c7-7 15-8 22-8s15 2 21 7L564.8 231.5c8 7 12 15 11 24z"/></symbol>
<symbol id="icon-trash" viewBox="0 0 448 512"><!--! Font Awesome Pro 6.4.2 by @fontawesome - https://fontawesome.com License - https://fontawesome.com/license (Commercial License) Copyright 2023 Fonticons, Inc. --><path d="M135.2 17.7L128 32H32C14.3 32 0 46.3 0 64S14.3 96 32 96H416c17.7 0 32-14.3 32-32s-14.3-32-32-32H320l-7.2-14.3C307.4 6.8 296.3 0 284.2 0H163.8c-12.1 0-23.2 6.8-28.6 17.7zM416 128H32L53.2 467c1.6 25.3 22.6 45 47.9 45H346.9c25.3 0 46.3-19.7 47.9-45L416 128z"/></symbol>



<symbol id="icon-vk" viewBox="0 0 576 512"><!--!Font Awesome Free 6.6.0 by @fontawesome - https://fontawesome.com License - https://fontawesome.com/license/free Copyright 2024 Fonticons, Inc.--><path d="M545 117.7c3.7-12.5 0-21.7-17.8-21.7h-58.9c-15 0-21.9 7.9-25.6 16.7 0 0-30 73.1-72.4 120.5-13.7 13.7-20 18.1-27.5 18.1-3.7 0-9.4-4.4-9.4-16.9V117.7c0-15-4.2-21.7-16.6-21.7h-92.6c-9.4 0-15 7-15 13.5 0 14.2 21.2 17.5 23.4 57.5v86.8c0 19-3.4 22.5-10.9 22.5-20 0-68.6-73.4-97.4-157.4-5.8-16.3-11.5-22.9-26.6-22.9H38.8c-16.8 0-20.2 7.9-20.2 16.7 0 15.6 20 93.1 93.1 195.5C160.4 378.1 229 416 291.4 416c37.5 0 42.1-8.4 42.1-22.9 0-66.8-3.4-73.1 15.4-73.1 8.7 0 23.7 4.4 58.7 38.1 40 40 46.6 57.9 69 57.9h58.9c16.8 0 25.3-8.4 20.4-25-11.2-34.9-86.9-106.7-90.3-111.5-8.7-11.2-6.2-16.2 0-26.2 .1-.1 72-101.3 79.4-135.6z"/></symbol>
<symbol id="icon-whatsapp" viewBox="0 0 448 512"><!--!Font Awesome Free 6.6.0 by @fontawesome - https://fontawesome.com License - https://fontawesome.com/license/free Copyright 2024 Fonticons, Inc.--><path d="M380.9 97.1C339 55.1 283.2 32 223.9 32c-122.4 0-222 99.6-222 222 0 39.1 10.2 77.3 29.6 111L0 480l117.7-30.9c32.4 17.7 68.9 27 106.1 27h.1c122.3 0 224.1-99.6 224.1-222 0-59.3-25.2-115-67.1-157zm-157 341.6c-33.2 0-65.7-8.9-94-25.7l-6.7-4-69.8 18.3L72 359.2l-4.4-7c-18.5-29.4-28.2-63.3-28.2-98.2 0-101.7 82.8-184.5 184.6-184.5 49.3 0 95.6 19.2 130.4 54.1 34.8 34.9 56.2 81.2 56.1 130.5 0 101.8-84.9 184.6-186.6 184.6zm101.2-138.2c-5.5-2.8-32.8-16.2-37.9-18-5.1-1.9-8.8-2.8-12.5 2.8-3.7 5.6-14.3 18-17.6 21.8-3.2 3.7-6.5 4.2-12 1.4-32.6-16.3-54-29.1-75.5-66-5.7-9.8 5.7-9.1 16.3-30.3 1.8-3.7 .9-6.9-.5-9.7-1.4-2.8-12.5-30.1-17.1-41.2-4.5-10.8-9.1-9.3-12.5-9.5-3.2-.2-6.9-.2-10.6-.2-3.7 0-9.7 1.4-14.8 6.9-5.1 5.6-19.4 19-19.4 46.3 0 27.3 19.9 53.7 22.6 57.4 2.8 3.7 39.1 59.7 94.8 83.8 35.2 15.2 49 16.5 66.6 13.9 10.7-1.6 32.8-13.4 37.4-26.4 4.6-13 4.6-24.1 3.2-26.4-1.3-2.5-5-3.9-10.5-6.6z"/></symbol>

<symbol id="icon-magnifying-glass" viewBox="0 0 15 22"><path d="M12.2837 9.36228C11.0883 11.7658 8.17081 12.7451 5.76734 11.5496C3.36387 10.3542 2.38456 7.43674 3.57998 5.03326C4.77541 2.62979 7.69289 1.65048 10.0964 2.8459C12.4998 4.04133 13.4791 6.95881 12.2837 9.36228ZM5.57784 13.6423C8.81797 14.8304 12.5019 13.4147 14.0745 10.2529C15.7618 6.86048 14.3795 2.7425 10.987 1.05517C7.59456 -0.632153 3.47657 0.750136 1.78925 4.1426C0.216665 7.30437 1.31041 11.0963 4.21282 12.9634L0.460069 20.5085L1.82509 21.1875L5.57784 13.6423Z"/></symbol>
<symbol id="icon-phone" viewBox="0 0 42 42"> <path d="M0 42C0.584322 40.2603 1.13477 38.6299 1.68522 36.9995C2.23567 35.3859 2.72683 33.7471 3.3535 32.1587C3.6753 31.3519 3.57368 30.7468 3.16719 29.9905C0.948464 25.906 0.287926 21.5275 1.05855 16.9724C1.71062 13.1149 3.36197 9.70283 6.02952 6.8034C10.4246 2.03824 15.9122 -0.24769 22.399 0.0212426C27.1498 0.214538 31.3501 1.93739 34.9323 5.05533C38.2688 7.95477 40.4452 11.5601 41.453 15.8463C42.2659 19.3004 42.1728 22.7377 41.1735 26.1414C39.9032 30.4527 37.4728 34.0076 33.8568 36.7138C28.835 40.4788 23.2035 41.647 17.0639 40.462C15.2178 40.1091 13.4563 39.4535 11.7965 38.5627C11.5255 38.4198 11.2969 38.3862 11.0005 38.4871C7.85023 39.4956 4.69151 40.4957 1.54125 41.4958C1.06702 41.647 0.584322 41.8067 0 42ZM5.36052 36.7306C5.52988 36.6886 5.6061 36.6718 5.68232 36.6466C7.65546 36.0246 9.6286 35.3943 11.6102 34.7892C11.7965 34.7304 12.0506 34.7808 12.2284 34.8649C13.0837 35.2851 13.9052 35.7893 14.7859 36.1591C18.4104 37.6803 22.1449 37.924 25.9219 36.8819C30.4271 35.6297 33.8822 32.9655 36.2449 28.9399C38.2688 25.4942 38.9632 21.7712 38.3366 17.8549C37.5405 12.8712 34.9661 8.95486 30.7065 6.17308C27.0143 3.7695 22.9494 2.95429 18.6136 3.63503C14.879 4.22332 11.6864 5.91256 9.05275 8.61869C6.79168 10.9382 5.27583 13.678 4.61529 16.8296C3.6753 21.3426 4.36971 25.6119 6.8933 29.503C7.40141 30.2846 7.38447 30.8813 7.07961 31.6797C6.46141 33.3185 5.94484 34.9909 5.36052 36.7306Z" fill="#023E3B"/><path d="M32.053 26.3597C32.0276 27.9817 31.257 29.2172 29.6988 29.9903C28.166 30.7467 26.6078 30.94 25.0073 30.3181C23.5676 29.755 22.1111 29.2087 20.7223 28.528C18.8931 27.6288 17.3942 26.2841 16.0223 24.7966C14.5064 23.1494 13.2192 21.3172 12.1607 19.3591C11.407 17.9724 10.9497 16.5017 11.1106 14.8881C11.28 13.1736 12.0845 11.8037 13.4394 10.77C13.7104 10.5683 14.1169 10.4759 14.4641 10.4423C14.9129 10.4087 15.3617 10.4759 15.8106 10.5095C16.1832 10.5431 16.3864 10.8036 16.5134 11.1062C16.8437 11.913 17.1401 12.7198 17.4534 13.535C17.6651 14.0813 17.8261 14.6528 18.0801 15.1822C18.3934 15.8377 18.1987 16.384 17.7922 16.8883C17.445 17.3169 17.0808 17.7287 16.6828 18.0985C16.3525 18.4094 16.2933 18.7288 16.5134 19.107C17.4873 20.8298 18.6729 22.3762 20.2396 23.6284C21.2727 24.452 22.4159 25.0655 23.6015 25.637C23.9487 25.8051 24.2875 25.7799 24.5584 25.4689C25.1428 24.805 25.7356 24.1494 26.3114 23.4771C26.684 23.0485 26.8703 22.9645 27.37 23.2166C28.8181 23.9393 30.2492 24.6873 31.6889 25.4353C32.0276 25.6202 32.1123 25.9227 32.053 26.3597Z" fill="#023E3B"/></symbol>
<symbol id="icon-user" viewBox="0 0 28 28"><path d="M22 24V21.8889C22 20.7691 21.5522 19.6951 20.7552 18.9033C19.9582 18.1115 18.8772 17.6667 17.75 17.6667H9.25C8.12283 17.6667 7.04183 18.1115 6.2448 18.9033C5.44777 19.6951 5 20.7691 5 21.8889V24M17.75 9.22222C17.75 11.5541 15.8472 13.4444 13.5 13.4444C11.1528 13.4444 9.25 11.5541 9.25 9.22222C9.25 6.89035 11.1528 5 13.5 5C15.8472 5 17.75 6.89035 17.75 9.22222Z" stroke-width="1.5"/></symbol>
<symbol id="icon-heart" viewBox="0 0 20 18"><path d="M9.33058 3.03601L10.0073 4.45261L10.6841 3.03601C11.3911 1.5559 12.8899 0.75 14.7341 0.75C17.2059 0.75 19.2429 2.87253 19.2499 5.51396C19.253 6.67692 18.7204 7.99759 17.8174 9.37611C16.9227 10.7419 15.7151 12.0878 14.486 13.2842C13.2599 14.4776 12.0305 15.5049 11.106 16.2347C10.6529 16.5924 10.2744 16.8775 10.0073 17.0745C9.74026 16.8775 9.36174 16.5922 8.90851 16.2343C7.98386 15.5041 6.754 14.4759 5.52707 13.2807C4.2971 12.0825 3.08808 10.7337 2.19125 9.36366C1.28622 7.98112 0.750111 6.65387 0.750111 5.48195C0.750111 2.85371 2.80632 0.75 5.28919 0.75C7.13198 0.75 8.62297 1.5548 9.33058 3.03601Z" stroke-width="1.5"/></symbol>
<symbol id="icon-shopping-cart" viewBox="0 0 32 32"><path d="M5.71429 10.0572L8.95239 5.71436H21.9048L25.1429 10.0572M5.71429 10.0572V25.2572C5.71429 25.8331 5.94173 26.3854 6.34657 26.7926C6.75141 27.1999 7.30049 27.4286 7.87302 27.4286H22.9841C23.5567 27.4286 24.1057 27.1999 24.5106 26.7926C24.9154 26.3854 25.1429 25.8331 25.1429 25.2572V10.0572M5.71429 10.0572H25.1429M19.746 14.4001C19.746 15.5519 19.2912 16.6565 18.4815 17.4709C17.6718 18.2854 16.5736 18.7429 15.4286 18.7429C14.2835 18.7429 13.1854 18.2854 12.3757 17.4709C11.566 16.6565 11.1111 15.5519 11.1111 14.4001" stroke-width="1.5"/></symbol>
</svg>